<svg width="55" height="82" xmlns="http://www.w3.org/2000/svg">
 <!-- Created with Method Draw - http://github.com/duopixel/Method-Draw/ -->

 <g>
  <title>background</title>
  <rect fill="none" id="canvas_background" height="84" width="57" y="-1" x="-1"/>
  <g display="none" overflow="visible" y="0" x="0" height="100%" width="100%" id="canvasGrid">
   <rect fill="url(#gridpattern)" stroke-width="0" y="0" x="0" height="100%" width="100%"/>
  </g>
 </g>
 <g>
  <title>Layer 1</title>
  <g stroke="null" transform="rotate(180 27.15204048156738,40.05091857910156) " stroke-opacity="0" id="svg_23">
   <g stroke="null" transform="matrix(1.5651810622352471,0,0,1.4733029140133866,558.6146252632399,49.47966103423681) " id="svg_5">
    <path stroke="#000777" fill="#777777" id="svg_6" d="m-338.84643,-26.10673c-0.092,-0.092 -0.203,-0.165 -0.325,-0.216c-0.245,-0.101 -0.52,-0.101 -0.764,0c-0.122,0.051 -0.233,0.124 -0.325,0.216l-16,16c-0.391,0.391 -0.391,1.023 0,1.414c0.195,0.195 0.451,0.293 0.707,0.293s0.512,-0.098 0.707,-0.293l14.293,-14.293l0,42.586c0,0.552 0.448,1 1,1s1,-0.448 1,-1l0,-42.586l14.293,14.293c0.195,0.195 0.451,0.293 0.707,0.293s0.512,-0.098 0.707,-0.293c0.391,-0.391 0.391,-1.023 0,-1.414l-16,-16z"/>
    <path stroke="#000777" fill="#777777" id="svg_7" d="m-355.55343,-31.39973l32,0c0.552,0 1,-0.448 1,-1s-0.448,-1 -1,-1l-32,0c-0.552,0 -1,0.448 -1,1s0.448,1 1,1z"/>
   </g>
   <g stroke="null" transform="matrix(-1.5651810622352471,0,0,-1.4733029140133866,-1706.135479565085,-176.95616741781885) " id="svg_8"/>
   <g stroke="null" transform="matrix(-1.5651810622352471,0,0,-1.4733029140133866,-1706.135479565085,-176.95616741781885) " id="svg_9"/>
   <g stroke="null" transform="matrix(-1.5651810622352471,0,0,-1.4733029140133866,-1706.135479565085,-176.95616741781885) " id="svg_10"/>
   <g stroke="null" transform="matrix(-1.5651810622352471,0,0,-1.4733029140133866,-1706.135479565085,-176.95616741781885) " id="svg_11"/>
   <g stroke="null" transform="matrix(-1.5651810622352471,0,0,-1.4733029140133866,-1706.135479565085,-176.95616741781885) " id="svg_12"/>
   <g stroke="null" transform="matrix(-1.5651810622352471,0,0,-1.4733029140133866,-1706.135479565085,-176.95616741781885) " id="svg_13"/>
   <g stroke="null" transform="matrix(-1.5651810622352471,0,0,-1.4733029140133866,-1706.135479565085,-176.95616741781885) " id="svg_14"/>
   <g stroke="null" transform="matrix(-1.5651810622352471,0,0,-1.4733029140133866,-1706.135479565085,-176.95616741781885) " id="svg_15"/>
   <g stroke="null" transform="matrix(-1.5651810622352471,0,0,-1.4733029140133866,-1706.135479565085,-176.95616741781885) " id="svg_16"/>
   <g stroke="null" transform="matrix(-1.5651810622352471,0,0,-1.4733029140133866,-1706.135479565085,-176.95616741781885) " id="svg_17"/>
   <g stroke="null" transform="matrix(-1.5651810622352471,0,0,-1.4733029140133866,-1706.135479565085,-176.95616741781885) " id="svg_18"/>
   <g stroke="null" transform="matrix(-1.5651810622352471,0,0,-1.4733029140133866,-1706.135479565085,-176.95616741781885) " id="svg_19"/>
   <g stroke="null" transform="matrix(-1.5651810622352471,0,0,-1.4733029140133866,-1706.135479565085,-176.95616741781885) " id="svg_20"/>
   <g stroke="null" transform="matrix(-1.5651810622352471,0,0,-1.4733029140133866,-1706.135479565085,-176.95616741781885) " id="svg_21"/>
   <g stroke="null" transform="matrix(-1.5651810622352471,0,0,-1.4733029140133866,-1706.135479565085,-176.95616741781885) " id="svg_22"/>
  </g>
 </g>
</svg>