<svg width="31" height="34" xmlns="http://www.w3.org/2000/svg">

 <g>
  <title>background</title>
  <rect fill="none" id="canvas_background" height="36" width="33" y="-1" x="-1"/>
 </g>
 <g>
  <title>Layer 1</title>
  <g stroke="null" id="svg_1">
   <g stroke="null" id="svg_2">
    <path stroke="null" fill="#ffffff" id="svg_3" d="m0.00691,25.63036l-0.00691,0.81899l0,0.2081l0.00691,0.2551c0.01382,0.16783 0.00691,0.34236 0.04147,0.51019c0.06911,0.68473 0.29027,1.34932 0.58746,1.97363c0.59437,1.24862 1.63796,2.27572 2.88199,2.92688l0.47688,0.22153c0.15896,0.06713 0.33174,0.12083 0.49761,0.18125c0.16587,0.06042 0.33865,0.1007 0.51143,0.14097c0.16587,0.04028 0.33865,0.08727 0.54599,0.10741l0.29027,0.04028c0.09676,0.01343 0.20043,0.02685 0.26263,0.02685l0.42159,0.02014l0.1244,0.00671l0.05529,0l0.10367,0l0.20734,0l0.42159,0c2.24615,-0.00671 4.49231,-0.00671 6.72464,0.03357c0.40085,0.00671 1.02286,-0.22824 1.22329,-0.38936c0.38703,-0.32894 -0.11749,-0.60417 -0.87773,-0.81228c-1.25093,-0.34908 -2.63318,-0.59746 -4.09146,-0.76529c-0.72568,-0.08727 -1.47209,-0.1544 -2.23233,-0.20139c-0.38012,-0.02685 -0.76024,-0.04699 -1.14035,-0.06042l-0.29027,-0.01343l-0.06911,0l-0.03456,0l-0.00691,0l0,0c0.02073,0 -0.04838,0 0.04147,0l-0.00691,0l-0.02073,0l-0.14514,-0.01343c-0.1866,-0.01343 -0.40085,-0.02685 -0.51834,-0.06042c-0.08293,-0.02014 -0.16587,-0.02685 -0.2488,-0.04699l-0.26954,-0.08056c-0.17969,-0.04699 -0.35247,-0.12755 -0.52525,-0.19468c-0.33865,-0.16111 -0.65657,-0.35579 -0.93993,-0.59746c-0.27645,-0.24167 -0.53908,-0.50348 -0.7395,-0.80556c-0.11749,-0.14097 -0.19351,-0.3088 -0.28336,-0.4632c-0.06911,-0.16783 -0.15896,-0.32223 -0.20734,-0.49005c-0.13131,-0.32894 -0.17969,-0.68473 -0.22116,-1.03381l-0.00691,-0.26181c0,-0.08727 -0.00691,-0.17454 0,-0.29537l0.02073,-0.67802l0.0622,-2.71207c0.07602,-3.61161 0.08985,-7.23665 -0.02073,-10.8684c0.02764,-0.89955 0.04838,-1.79238 0.07602,-2.69193l0.04147,-2.13474l0.01382,-1.06737l0,-0.12755l0,-0.00671l0.00691,-0.06713l0.01382,-0.26852c0.00691,-0.2081 0.04147,-0.26852 0.05529,-0.38264c0.08985,-0.47663 0.30409,-1.00024 0.60819,-1.42316c0.30409,-0.42963 0.70495,-0.80556 1.15418,-1.0808c0.45614,-0.28195 0.96757,-0.46991 1.49974,-0.55718c0.13131,-0.02685 0.26954,-0.03357 0.40085,-0.04699c0.07602,-0.00671 0.11749,-0.01343 0.22116,-0.01343l0.27645,-0.00671l1.09889,-0.02014c1.46518,-0.03357 2.92346,-0.08056 4.38173,-0.1544c1.6587,-0.08056 3.04095,-0.38936 2.91654,-0.99353c-0.11058,-0.55718 -1.2924,-0.96668 -2.99257,-1.02709c-1.52738,-0.0537 -3.06859,-0.10741 -4.60289,-0.16111l-1.15418,-0.02685c-0.23498,0.00671 -0.46305,0.00671 -0.69804,0.02685c-0.22807,0.03357 -0.46305,0.0537 -0.69112,0.10741c-0.91228,0.18796 -1.7831,0.58403 -2.5226,1.14122c-1.18182,0.89955 -2.01808,2.2153 -2.30835,3.64518c-0.03456,0.18796 -0.0622,0.38936 -0.08293,0.58403c-0.01382,0.10741 -0.01382,0.17454 -0.02073,0.24838l-0.00691,0.22153l-0.00691,0.11412l0,0.10741l0,0.0537l0.00691,0.22153l0.00691,0.44977l0.03456,1.79909l0.15205,7.18966c-0.20043,2.14817 -0.31792,4.30977 -0.38703,6.47808c-0.0622,1.06737 -0.08293,2.15488 -0.09676,3.2424z"/>
    <path stroke="null" fill="#ffffff" id="svg_4" d="m30.1261,16.54092c-0.95375,-0.69144 -2.11484,-0.99353 -3.29666,-1.07409c-2.84052,-0.19468 -5.68104,-0.49005 -8.5423,-0.26852c-0.35247,-0.02685 -0.70495,-0.0537 -1.05742,-0.07384c-1.76237,-0.08727 -3.52473,-0.12755 -5.28019,-0.00671c1.1058,-0.98682 2.15631,-2.03405 3.04786,-3.22226c0.31101,-0.4095 0.38703,-0.9264 -0.08293,-1.32918c-0.4285,-0.36922 -0.98831,-0.40278 -1.40989,-0.08727c-0.76024,0.57732 -1.5343,1.14793 -2.20469,1.81923c-1.07124,1.0808 -2.06646,2.23544 -3.09624,3.35652l-0.16587,0.09398l-0.00691,0c-0.31792,0.18125 -0.42159,0.57061 -0.24189,0.87941l0.2488,0.4095c1.40298,2.35628 3.66296,3.96069 5.48753,5.94775c0.08293,0.08727 0.39394,0.06042 0.5529,-0.01343c0.32483,-0.14769 0.41467,-0.45649 0.40085,-0.76529c-0.04838,-1.02709 -0.49761,-1.89308 -1.11962,-2.61137c-0.64275,-0.74515 -1.27167,-1.49701 -1.92824,-2.22873c0.87773,0.08056 1.75546,0.1544 2.62627,0.14097c1.88677,-0.02685 3.77354,-0.16111 5.66722,-0.24838c3.38651,0.772 6.84904,0.32894 10.27011,0.49005c0.15205,0.00671 0.39394,-0.22824 0.46996,-0.38936c0.14514,-0.32894 -0.04838,-0.60417 -0.33865,-0.81899z"/>
   </g>
  </g>
  <g id="svg_5"/>
  <g id="svg_6"/>
  <g id="svg_7"/>
  <g id="svg_8"/>
  <g id="svg_9"/>
  <g id="svg_10"/>
  <g id="svg_11"/>
  <g id="svg_12"/>
  <g id="svg_13"/>
  <g id="svg_14"/>
  <g id="svg_15"/>
  <g id="svg_16"/>
  <g id="svg_17"/>
  <g id="svg_18"/>
  <g id="svg_19"/>
 </g>
</svg>